<svg width="120" height="35" viewBox="0 0 120 35" fill="none" xmlns="http://www.w3.org/2000/svg">
<path d="M8.636 28.7C8.228 28.5867 7.89933 28.4847 7.65 28.394C7.40067 28.326 7.276 28.292 7.276 28.292C7.32133 28.1787 7.29867 28.0767 7.208 27.986C7.14 27.8953 6.98133 27.8387 6.732 27.816C6.392 27.612 6.07467 27.3513 5.78 27.034C5.508 26.7393 5.28133 26.4447 5.1 26.15C4.91867 25.8553 4.78267 25.606 4.692 25.402C4.53333 25.062 4.454 24.858 4.454 24.79C4.47667 24.6993 4.61267 24.5973 4.862 24.484C5.11133 24.3027 5.29267 24.246 5.406 24.314C5.542 24.382 5.70067 24.6087 5.882 24.994C6.17667 25.5153 6.67533 25.912 7.378 26.184C8.10333 26.456 8.908 26.5807 9.792 26.558C10.6987 26.5127 11.56 26.3087 12.376 25.946C13.2147 25.606 13.736 25.2547 13.94 24.892C14.1667 24.5067 14.0873 24.0193 13.702 23.43C13.634 23.2487 13.5547 23.1013 13.464 22.988C13.3733 22.8747 13.226 22.7273 13.022 22.546C12.8407 22.3647 12.5347 22.07 12.104 21.662C11.764 21.5033 11.4467 21.356 11.152 21.22C10.88 21.084 10.5853 20.9367 10.268 20.778C9.90533 20.5967 9.46333 20.336 8.942 19.996C8.44333 19.6333 7.96733 19.2367 7.514 18.806C7.06067 18.3753 6.732 17.9787 6.528 17.616C6.16533 17.276 5.89333 16.8113 5.712 16.222C5.53067 15.61 5.46267 14.964 5.508 14.284C5.55333 13.604 5.72333 12.992 6.018 12.448C6.154 12.1307 6.38067 11.7453 6.698 11.292C7.038 10.816 7.412 10.34 7.82 9.864C8.228 9.388 8.62467 8.95733 9.01 8.572C9.39533 8.18667 9.71267 7.91467 9.962 7.756C10.1433 7.57467 10.336 7.39333 10.54 7.212C10.744 7.008 10.846 6.906 10.846 6.906C10.8687 6.79267 10.9027 6.736 10.948 6.736C11.016 6.736 11.05 6.736 11.05 6.736C11.1633 6.668 11.4127 6.55467 11.798 6.396C12.1833 6.23733 12.6027 5.94267 13.056 5.512C14.5747 4.78667 15.81 4.254 16.762 3.914C17.714 3.574 18.496 3.404 19.108 3.404C19.6747 3.42667 20.1847 3.56267 20.638 3.812C21.114 4.03867 21.4993 4.34467 21.794 4.73C22.1113 5.11533 22.304 5.58 22.372 6.124C22.5307 6.668 22.4853 7.30267 22.236 8.028C21.9867 8.73067 21.6127 9.39933 21.114 10.034C20.638 10.646 20.1167 11.1107 19.55 11.428C18.9153 11.7 18.4847 11.8247 18.258 11.802C18.054 11.7567 17.9633 11.5187 17.986 11.088C17.986 10.9067 18.0427 10.6913 18.156 10.442C18.292 10.1927 18.6433 9.75067 19.21 9.116C19.9353 8.05067 20.3773 7.20067 20.536 6.566C20.6947 5.93133 20.5473 5.58 20.094 5.512C19.958 5.46667 19.7087 5.46667 19.346 5.512C19.006 5.55733 18.6207 5.62533 18.19 5.716C17.782 5.784 17.4307 5.86333 17.136 5.954C16.8413 6.022 16.694 6.07867 16.694 6.124C16.694 6.124 16.694 6.158 16.694 6.226C16.694 6.294 16.6487 6.31667 16.558 6.294C16.5127 6.294 16.32 6.38467 15.98 6.566C15.64 6.74733 15.232 6.98533 14.756 7.28C14.28 7.57467 13.804 7.86933 13.328 8.164C12.852 8.45867 12.444 8.71933 12.104 8.946C11.7867 9.15 11.6167 9.27467 11.594 9.32C11.5487 9.56933 11.288 9.796 10.812 10C10.3587 10.272 9.93933 10.6687 9.554 11.19C9.19133 11.7113 8.78333 12.3573 8.33 13.128C7.94467 13.6493 7.67267 14.216 7.514 14.828C7.35533 15.4173 7.35533 15.8933 7.514 16.256C7.62733 16.6187 7.97867 17.0833 8.568 17.65C9.15733 18.2167 9.894 18.7607 10.778 19.282C11.5487 19.7127 12.24 20.1433 12.852 20.574C13.464 20.982 13.9627 21.3787 14.348 21.764C14.756 22.1493 15.028 22.4893 15.164 22.784C15.436 23.1693 15.6287 23.566 15.742 23.974C15.878 24.3593 15.946 24.7333 15.946 25.096C15.9687 25.4587 15.9347 25.7873 15.844 26.082C15.6853 26.4447 15.402 26.8187 14.994 27.204C14.6087 27.5893 14.28 27.7707 14.008 27.748C13.7587 27.816 13.566 27.8953 13.43 27.986C13.3167 28.0767 13.1807 28.156 13.022 28.224C12.8633 28.3147 12.5233 28.4053 12.002 28.496C11.5033 28.5867 10.948 28.6433 10.336 28.666C9.724 28.7113 9.15733 28.7227 8.636 28.7ZM20.9732 25.912C20.7919 25.7307 20.6559 25.504 20.5652 25.232C20.4972 24.96 20.4746 24.688 20.4972 24.416C20.5199 24.144 20.5766 23.9173 20.6672 23.736C20.6672 23.5547 20.6899 23.4187 20.7352 23.328C20.8032 23.2147 20.8259 23.1127 20.8032 23.022C20.7806 22.9313 20.8032 22.7727 20.8712 22.546C20.9392 22.3193 21.0072 22.104 21.0752 21.9C21.2339 21.5373 21.4039 21.1067 21.5852 20.608C21.7666 20.0867 21.9366 19.5767 22.0952 19.078C22.2539 18.5793 22.3899 18.1487 22.5032 17.786C22.6166 17.4233 22.6846 17.1967 22.7072 17.106C22.7072 16.834 22.8886 16.6867 23.2512 16.664C23.5232 16.5733 23.7272 16.5733 23.8632 16.664C23.9992 16.732 24.1806 16.9473 24.4072 17.31C24.5886 17.4913 24.6566 17.7633 24.6112 18.126C24.5659 18.4887 24.4186 18.942 24.1692 19.486C24.0786 19.6673 23.9652 19.928 23.8292 20.268C23.7159 20.608 23.6366 20.914 23.5912 21.186C23.5006 21.3673 23.3872 21.628 23.2512 21.968C23.1379 22.2853 23.0359 22.5913 22.9452 22.886C22.8999 22.9993 22.8546 23.1693 22.8092 23.396C22.7639 23.6 22.7072 23.8267 22.6392 24.076C22.5712 24.3027 22.4806 24.5067 22.3672 24.688C22.1632 25.6173 21.9706 26.1613 21.7892 26.32C21.6306 26.4787 21.3586 26.3427 20.9732 25.912ZM24.2712 12.108C24.1579 11.9947 24.0559 11.836 23.9652 11.632C23.8746 11.4053 23.8179 11.2013 23.7952 11.02C23.7726 10.816 23.7952 10.714 23.8632 10.714C24.0446 10.6913 24.2599 10.4987 24.5092 10.136C24.7586 9.77333 24.8606 9.456 24.8152 9.184C24.8152 9.09333 24.8492 9.014 24.9172 8.946C24.9852 8.85533 25.0646 8.79867 25.1552 8.776C25.4272 8.59467 25.6879 8.572 25.9372 8.708C26.2092 8.82133 26.4586 9.05933 26.6852 9.422C26.8892 9.85267 26.9459 10.2153 26.8552 10.51C26.7646 10.782 26.5152 11.1673 26.1072 11.666C25.7672 12.1193 25.4499 12.3687 25.1552 12.414C24.8832 12.4593 24.5886 12.3573 24.2712 12.108ZM30.511 33.494C29.8763 33.7433 29.2077 33.698 28.505 33.358C27.825 33.0407 27.2357 32.5307 26.737 31.828C26.6463 31.692 26.533 31.4767 26.397 31.182C26.2837 30.91 26.1703 30.6267 26.057 30.332C25.9663 30.0373 25.9097 29.7767 25.887 29.55C25.8643 29.3233 25.887 29.1873 25.955 29.142C26.023 29.074 26.1363 29.0513 26.295 29.074C26.4537 29.0967 26.601 29.1533 26.737 29.244C26.8957 29.3347 26.9977 29.448 27.043 29.584C27.111 29.7427 27.213 29.9467 27.349 30.196C27.5077 30.4453 27.6777 30.672 27.859 30.876C28.0403 31.08 28.1763 31.1933 28.267 31.216C28.6977 31.42 29.015 31.5107 29.219 31.488C29.423 31.4653 29.6043 31.3973 29.763 31.284C30.1483 30.9893 30.4657 30.604 30.715 30.128C30.9643 29.652 31.2477 28.9153 31.565 27.918C31.8143 27.0793 32.0637 26.1953 32.313 25.266C32.585 24.314 32.823 23.5773 33.027 23.056C33.095 22.784 33.1743 22.5573 33.265 22.376C33.3783 22.172 33.4803 22.0247 33.571 21.934H33.775C33.2763 22.2513 32.8343 22.614 32.449 23.022C32.0637 23.43 31.5763 23.7587 30.987 24.008C30.851 24.1667 30.511 24.2687 29.967 24.314C29.4457 24.3367 28.9357 24.2687 28.437 24.11C28.1197 23.9287 27.8817 23.7927 27.723 23.702C27.587 23.6113 27.4737 23.4867 27.383 23.328C27.315 23.1693 27.213 22.92 27.077 22.58C26.9183 22.24 26.8957 21.6847 27.009 20.914C27.1223 20.1433 27.3263 19.3727 27.621 18.602C27.893 18.0353 28.2897 17.4233 28.811 16.766C29.3323 16.1087 29.8877 15.5193 30.477 14.998C31.0663 14.454 31.599 14.114 32.075 13.978C32.2563 13.8873 32.449 13.8307 32.653 13.808C32.8797 13.7627 33.197 13.7967 33.605 13.91C33.9903 13.9553 34.285 14.046 34.489 14.182C34.693 14.2953 35.0217 14.5447 35.475 14.93C35.7697 15.2247 36.0077 15.5193 36.189 15.814C36.393 16.1087 36.5517 16.4147 36.665 16.732C36.8237 17.072 36.8803 17.3893 36.835 17.684C36.8123 17.956 36.6877 18.2393 36.461 18.534C36.257 18.8287 36.0417 19.1233 35.815 19.418C35.5883 19.7127 35.4183 20.1207 35.305 20.642C35.1917 21.322 35.0103 22.0927 34.761 22.954C34.5117 23.7927 34.2963 24.5747 34.115 25.3L33.571 27.408C33.0043 29.3347 32.4603 30.7627 31.939 31.692C31.4403 32.644 30.9643 33.2447 30.511 33.494ZM29.287 22.614C29.7403 22.5913 30.171 22.5007 30.579 22.342C30.987 22.1833 31.3837 21.9227 31.769 21.56C32.1543 21.1747 32.5397 20.6873 32.925 20.098C33.3103 19.554 33.5823 18.9873 33.741 18.398C33.8997 17.786 33.9563 17.1967 33.911 16.63C33.8883 16.2673 33.8317 16.0293 33.741 15.916C33.6503 15.8027 33.4577 15.7687 33.163 15.814C32.7323 15.882 32.2563 16.12 31.735 16.528C31.2137 16.9133 30.7263 17.4007 30.273 17.99C29.933 18.4433 29.6497 18.9873 29.423 19.622C29.1963 20.302 29.0603 20.948 29.015 21.56C28.9697 22.172 29.0603 22.5233 29.287 22.614ZM49.567 26.592C49.3403 26.592 49.1023 26.4673 48.853 26.218C48.6263 25.9687 48.4223 25.6627 48.241 25.3C48.0823 24.9147 48.003 24.552 48.003 24.212C48.003 23.872 48.0823 23.2373 48.241 22.308C48.4223 21.3787 48.6376 20.438 48.887 19.486C49.0683 18.8967 49.125 18.5567 49.057 18.466C48.989 18.3753 48.683 18.5 48.139 18.84C47.8216 18.9987 47.5383 19.1687 47.289 19.35C47.0396 19.5087 46.8243 19.69 46.643 19.894C46.5296 19.9847 46.3596 20.132 46.133 20.336C45.9063 20.54 45.6683 20.7327 45.419 20.914C45.1243 21.1407 44.7503 21.458 44.297 21.866C43.8436 22.274 43.3903 22.682 42.937 23.09C42.5063 23.498 42.1776 23.8153 41.951 24.042C41.9056 24.1327 41.8376 24.212 41.747 24.28C41.6563 24.348 41.5543 24.3933 41.441 24.416C41.3276 24.416 41.203 24.3933 41.067 24.348C40.8176 24.28 40.5796 24.1327 40.353 23.906C40.149 23.6793 40.047 23.4187 40.047 23.124C40.047 22.8973 40.1376 22.512 40.319 21.968C40.5003 21.4013 40.7383 20.7213 41.033 19.928C41.3503 19.1347 41.713 18.296 42.121 17.412C42.189 17.2987 42.2456 17.1627 42.291 17.004C42.3363 16.8227 42.3703 16.63 42.393 16.426C42.4383 16.222 42.461 16.0293 42.461 15.848C42.461 15.7347 42.4723 15.6213 42.495 15.508C42.5403 15.372 42.5856 15.2473 42.631 15.134C42.699 14.998 42.7556 14.9073 42.801 14.862C42.8916 14.6807 43.0503 14.6353 43.277 14.726C43.5036 14.794 43.6963 14.9527 43.855 15.202C44.195 15.5193 44.365 15.916 44.365 16.392C44.3876 16.868 44.2743 17.4573 44.025 18.16C43.9343 18.3187 43.855 18.4773 43.787 18.636C43.7416 18.772 43.6963 18.8967 43.651 19.01C43.6056 19.1007 43.5716 19.18 43.549 19.248C43.5263 19.2933 43.515 19.316 43.515 19.316C43.6056 19.316 43.8096 19.214 44.127 19.01C44.4443 18.806 44.8183 18.5793 45.249 18.33C45.589 18.0807 45.8836 17.854 46.133 17.65C46.405 17.4233 46.6316 17.2533 46.813 17.14C46.9943 17.004 47.1076 16.936 47.153 16.936C47.2436 16.936 47.357 16.902 47.493 16.834C47.629 16.766 47.7423 16.6867 47.833 16.596C47.9236 16.5053 47.9916 16.46 48.037 16.46C48.105 16.4373 48.139 16.426 48.139 16.426C48.139 16.426 48.1843 16.426 48.275 16.426C48.3656 16.4033 48.4563 16.3467 48.547 16.256C48.7283 16.12 48.9663 16.086 49.261 16.154C49.5556 16.1993 49.8276 16.3127 50.077 16.494C50.3263 16.6753 50.451 16.8793 50.451 17.106C50.451 17.1967 50.4736 17.276 50.519 17.344C50.587 17.3893 50.621 17.412 50.621 17.412C50.8023 17.412 50.9156 17.6953 50.961 18.262C51.029 18.8287 50.9723 19.3727 50.791 19.894C50.791 20.234 50.723 20.642 50.587 21.118C50.4736 21.594 50.3716 22.0473 50.281 22.478C50.0996 23.0447 49.975 23.5433 49.907 23.974C49.839 24.4047 49.8276 24.7673 49.873 25.062C49.9183 25.3567 49.9976 25.5947 50.111 25.776C50.2016 25.9347 50.2016 26.116 50.111 26.32C50.0203 26.5013 49.839 26.592 49.567 26.592ZM57.2236 26.014C57.0423 26.0593 56.8043 26.082 56.5096 26.082C56.2149 26.0593 55.9543 26.0253 55.7276 25.98C55.5236 25.912 55.4216 25.844 55.4216 25.776C55.4216 25.6627 55.3649 25.606 55.2516 25.606C55.2516 25.606 55.1949 25.5607 55.0816 25.47C54.9909 25.3793 54.8436 25.2887 54.6396 25.198C54.4356 24.8807 54.3336 24.5407 54.3336 24.178C54.3336 23.7927 54.4356 23.192 54.6396 22.376C54.7076 21.8093 54.9229 21.152 55.2856 20.404C55.6709 19.6333 56.1356 18.8513 56.6796 18.058C57.2236 17.2647 57.7903 16.5507 58.3796 15.916C58.9916 15.2813 59.5469 14.8167 60.0456 14.522C60.3629 14.2047 60.7483 14.0347 61.2016 14.012C61.6549 13.9893 62.0856 14.0913 62.4936 14.318C62.7203 14.4313 62.9469 14.6127 63.1736 14.862C63.4003 15.1113 63.6156 15.3833 63.8196 15.678C64.0236 15.9727 64.1936 16.2673 64.3296 16.562C64.3976 16.8113 64.4316 17.038 64.4316 17.242C64.4543 17.4233 64.4543 17.65 64.4316 17.922C64.4316 18.194 64.3976 18.602 64.3296 19.146C64.2163 19.554 64.1143 20.0527 64.0236 20.642C63.9556 21.2313 63.9216 21.7413 63.9216 22.172C63.8763 22.6027 63.9216 22.9087 64.0576 23.09C64.2163 23.2713 64.4429 23.2827 64.7376 23.124C65.0096 22.988 65.2703 22.9313 65.5196 22.954C65.7689 22.954 65.9616 23.022 66.0976 23.158C66.2563 23.294 66.3356 23.498 66.3356 23.77C66.3356 24.042 66.1996 24.3253 65.9276 24.62C65.6783 24.892 65.3609 25.13 64.9756 25.334C64.6129 25.5153 64.2616 25.606 63.9216 25.606C63.6723 25.606 63.4343 25.4587 63.2076 25.164C62.9809 24.8467 62.7769 24.4727 62.5956 24.042C62.4369 23.5887 62.2896 23.158 62.1536 22.75L61.9496 21.968L60.4876 23.362C60.1929 23.6793 59.8983 23.974 59.6036 24.246C59.3316 24.4953 59.1616 24.6767 59.0936 24.79C58.9803 24.994 58.7649 25.198 58.4476 25.402C58.1529 25.606 57.7449 25.81 57.2236 26.014ZM57.3256 24.008C57.7109 23.7813 58.1529 23.4527 58.6516 23.022C59.1503 22.5687 59.6376 22.0813 60.1136 21.56C60.5896 21.016 60.9863 20.5173 61.3036 20.064C61.6889 19.5427 61.9836 19.0553 62.1876 18.602C62.3916 18.1487 62.5389 17.718 62.6296 17.31C62.5389 17.0607 62.3916 16.8 62.1876 16.528C61.9836 16.2333 61.8023 16.0747 61.6436 16.052C61.1449 16.052 60.6123 16.3693 60.0456 17.004C59.5016 17.616 58.9689 18.2847 58.4476 19.01C58.3569 19.1233 58.2323 19.3047 58.0736 19.554C57.9149 19.8033 57.7563 20.0413 57.5976 20.268C57.4616 20.472 57.3709 20.608 57.3256 20.676C57.2576 20.7667 57.1216 21.0273 56.9176 21.458C56.7363 21.866 56.5549 22.2853 56.3736 22.716C56.1923 23.124 56.1016 23.396 56.1016 23.532C56.1016 23.668 56.1129 23.8153 56.1356 23.974C56.1809 24.1327 56.2943 24.2347 56.4756 24.28C56.6569 24.3253 56.9403 24.2347 57.3256 24.008ZM71.0401 28.7C70.2921 28.5867 69.7821 28.3033 69.5101 27.85C69.2607 27.4193 69.2041 26.7507 69.3401 25.844C69.4761 25.4133 69.5554 25.028 69.5781 24.688C69.6234 24.3253 69.7254 24.0987 69.8841 24.008C69.8841 24.008 69.8954 23.974 69.9181 23.906C69.9634 23.838 69.9521 23.77 69.8841 23.702C69.8841 23.4073 69.9861 22.9993 70.1901 22.478C70.2354 22.342 70.2921 22.1833 70.3601 22.002C70.4507 21.798 70.4961 21.696 70.4961 21.696C70.3827 21.5147 70.3827 21.3673 70.4961 21.254C70.6094 21.1407 70.7227 21.0387 70.8361 20.948C70.9721 20.8347 70.9834 20.71 70.8701 20.574C70.8247 20.4833 70.8814 20.2793 71.0401 19.962C71.1987 19.622 71.3801 19.2707 71.5841 18.908C71.7881 18.5453 71.9241 18.262 71.9921 18.058C71.9921 18.0127 72.0487 17.854 72.1621 17.582C72.2754 17.31 72.4114 16.9927 72.5701 16.63C72.7287 16.2673 72.8761 15.9387 73.0121 15.644C73.1707 15.3493 73.2727 15.1567 73.3181 15.066C73.5447 14.9527 73.4541 14.8733 73.0461 14.828C72.6381 14.7827 72.2074 14.7713 71.7541 14.794C71.0514 14.7713 70.4847 14.7373 70.0541 14.692C69.6461 14.6467 69.3061 14.5447 69.0341 14.386C68.7621 14.0687 68.6601 13.842 68.7281 13.706C68.8187 13.5473 69.0907 13.4567 69.5441 13.434C69.8387 13.4113 70.0654 13.4 70.2241 13.4C70.4054 13.4 70.6321 13.3887 70.9041 13.366C71.1987 13.3207 71.6521 13.264 72.2641 13.196L73.9981 13.06L74.1001 12.482C74.2814 12.1873 74.4287 11.9267 74.5421 11.7C74.6781 11.4507 74.7914 11.2013 74.8821 10.952C74.9727 10.7027 75.0407 10.442 75.0861 10.17C75.0861 10.17 75.1881 9.98867 75.3921 9.626C75.5961 9.24067 75.7207 8.844 75.7661 8.436C76.0381 7.98267 76.2761 7.57467 76.4801 7.212C76.6841 6.82667 76.8087 6.58867 76.8541 6.498C77.1034 6.294 77.2734 6.192 77.3641 6.192C77.4774 6.192 77.7041 6.30533 78.0441 6.532C78.2481 6.64533 78.4294 6.78133 78.5881 6.94C78.7467 7.09867 78.8487 7.26867 78.8941 7.45C78.9394 7.60867 78.8714 7.76733 78.6901 7.926C78.6447 8.01667 78.5767 8.18667 78.4861 8.436C78.3954 8.66267 78.3274 8.85533 78.2821 9.014C78.1461 9.17267 77.9761 9.43333 77.7721 9.796C77.5907 10.136 77.4661 10.4873 77.3981 10.85C77.2167 11.2353 77.0467 11.5867 76.8881 11.904C76.7294 12.1987 76.6047 12.346 76.5141 12.346C76.5594 12.5727 76.6954 12.686 76.9221 12.686C77.1487 12.6633 77.5227 12.6407 78.0441 12.618C78.4747 12.5727 78.7694 12.5273 78.9281 12.482C79.1094 12.414 79.3134 12.4367 79.5401 12.55C79.6534 12.7087 79.7441 12.89 79.8121 13.094C79.8801 13.298 79.8914 13.4907 79.8461 13.672C79.8234 13.8307 79.7327 13.944 79.5741 14.012C79.4607 14.012 79.2227 14.08 78.8601 14.216C78.5201 14.3293 78.0894 14.3973 77.5681 14.42L75.7661 14.59L75.1881 15.746C75.0294 16.0407 74.8934 16.3127 74.7801 16.562C74.6667 16.7887 74.5874 16.9247 74.5421 16.97C74.5421 17.106 74.4627 17.31 74.3041 17.582C74.1681 17.854 74.0207 18.1487 73.8621 18.466C73.7261 18.8513 73.5674 19.2027 73.3861 19.52C73.2274 19.8373 73.1481 19.996 73.1481 19.996C73.0574 19.996 73.0121 20.064 73.0121 20.2C73.1254 20.472 73.0914 20.676 72.9101 20.812C72.7967 20.88 72.6947 20.982 72.6041 21.118C72.5361 21.2313 72.5021 21.288 72.5021 21.288C72.5927 21.3787 72.6041 21.492 72.5361 21.628C72.4907 21.764 72.4227 21.9113 72.3321 22.07C72.3321 22.2513 72.2754 22.512 72.1621 22.852C72.0714 23.192 71.9694 23.5093 71.8561 23.804C71.8787 24.212 71.9014 24.4727 71.9241 24.586C71.9467 24.6993 72.0034 24.7447 72.0941 24.722C72.2074 24.7447 72.3094 24.7447 72.4001 24.722C72.4907 24.6993 72.5814 24.688 72.6721 24.688C72.9894 24.552 72.8194 25.3453 72.1621 27.068C71.7994 27.6347 71.5501 28.0427 71.4141 28.292C71.2781 28.564 71.1534 28.7 71.0401 28.7ZM81.6159 25.266C81.1853 24.8807 80.8566 24.484 80.6299 24.076C80.4259 23.668 80.2673 23.022 80.1539 22.138C80.1086 21.73 80.1539 21.1973 80.2899 20.54C80.4259 19.86 80.6186 19.146 80.8679 18.398C81.1173 17.65 81.4006 16.97 81.7179 16.358C82.0353 15.7233 82.3526 15.2473 82.6699 14.93C82.9419 14.59 83.1573 14.4087 83.3159 14.386C83.4973 14.3407 83.8146 14.42 84.2679 14.624C84.5173 14.9187 84.6419 15.236 84.6419 15.576C84.6419 15.916 84.5059 16.3013 84.2339 16.732C83.7806 17.344 83.3839 18.1147 83.0439 19.044C82.7266 19.9507 82.5113 20.7667 82.3979 21.492C82.1713 22.2627 82.0693 22.784 82.0919 23.056C82.1146 23.328 82.3186 23.5093 82.7039 23.6C83.1346 23.6907 83.6446 23.532 84.2339 23.124C84.8233 22.6933 85.4013 22.104 85.9679 21.356C86.5346 20.5853 86.9879 19.7467 87.3279 18.84C87.4639 18.5227 87.5659 18.1487 87.6339 17.718C87.7246 17.2873 87.8153 16.97 87.9059 16.766C88.0193 16.3127 88.1779 15.984 88.3819 15.78C88.5859 15.5533 88.8013 15.4287 89.0279 15.406C89.2546 15.3607 89.4473 15.406 89.6059 15.542C89.8099 15.6327 89.9346 15.746 89.9799 15.882C90.0253 15.9953 90.0253 16.3127 89.9799 16.834C89.9799 17.6727 89.7986 18.3867 89.4359 18.976C89.0733 19.5653 88.7673 20.1887 88.5179 20.846C88.3139 21.322 88.0079 21.8547 87.5999 22.444C87.2146 23.0333 86.7839 23.566 86.3079 24.042C85.8546 24.518 85.4126 24.8467 84.9819 25.028C84.3473 25.436 83.7806 25.64 83.2819 25.64C82.8059 25.6173 82.2506 25.4927 81.6159 25.266ZM92.4659 25.81C92.2619 25.6513 92.1146 25.4927 92.0239 25.334C91.9559 25.1753 91.9559 24.8693 92.0239 24.416C92.0919 23.7813 92.1826 23.226 92.2959 22.75C92.4093 22.2513 92.5453 21.6847 92.7039 21.05C92.7493 20.778 92.8739 20.3133 93.0779 19.656C93.3046 18.9987 93.5766 18.2847 93.8939 17.514C94.2113 16.7433 94.5286 16.018 94.8459 15.338C95.1633 14.6353 95.4353 14.114 95.6619 13.774C95.8433 13.638 96.0586 13.5813 96.3079 13.604C96.5799 13.6267 96.8066 13.7287 96.9879 13.91C97.2373 14.114 97.2713 14.4767 97.0899 14.998C96.9313 15.4967 96.5913 16.29 96.0699 17.378C95.7979 17.99 95.5939 18.4547 95.4579 18.772C95.3219 19.0667 95.2653 19.248 95.2879 19.316C95.3106 19.3613 95.4126 19.3273 95.5939 19.214C95.7299 18.9647 95.9793 18.6813 96.3419 18.364C96.7046 18.024 97.0899 17.6953 97.4979 17.378C97.9059 17.0607 98.2913 16.7773 98.6539 16.528C99.0166 16.2787 99.2659 16.12 99.4019 16.052C99.5833 15.9387 99.7873 15.848 100.014 15.78C100.263 15.6893 100.433 15.6213 100.524 15.576C101.045 15.3267 101.578 15.236 102.122 15.304C102.666 15.372 103.006 15.576 103.142 15.916C103.165 16.0973 103.233 16.2333 103.346 16.324C103.482 16.4147 103.55 16.46 103.55 16.46C103.641 16.46 103.686 16.494 103.686 16.562C103.709 16.63 103.72 16.664 103.72 16.664C103.72 16.8227 103.595 16.9247 103.346 16.97C103.119 16.9927 102.825 17.0153 102.462 17.038C102.167 17.0607 101.907 17.1173 101.68 17.208C101.453 17.2987 101.181 17.412 100.864 17.548C100.003 18.0467 99.1753 18.534 98.3819 19.01C97.6113 19.486 96.8633 20.1207 96.1379 20.914C95.9793 21.0953 95.8206 21.3107 95.6619 21.56C95.5033 21.8093 95.3333 22.0813 95.1519 22.376C95.0386 22.4893 94.9253 22.7387 94.8119 23.124C94.6986 23.5093 94.5966 23.8833 94.5059 24.246C94.4379 24.586 94.4039 24.79 94.4039 24.858C94.4039 24.858 94.3699 24.9713 94.3019 25.198C94.2339 25.402 94.1206 25.606 93.9619 25.81C93.6899 26.1727 93.4633 26.354 93.2819 26.354C93.1006 26.354 92.8286 26.1727 92.4659 25.81ZM110.056 25.81C109.58 26.218 109.025 26.456 108.39 26.524C107.778 26.592 107.177 26.5013 106.588 26.252C105.999 25.98 105.511 25.572 105.126 25.028C104.741 24.5293 104.491 23.9627 104.378 23.328C104.265 22.6707 104.253 21.8207 104.344 20.778C104.412 19.894 104.695 19.01 105.194 18.126C105.693 17.2193 106.293 16.4147 106.996 15.712C107.721 15.0093 108.435 14.522 109.138 14.25C109.478 14.0233 109.761 13.9213 109.988 13.944C110.237 13.944 110.611 13.9667 111.11 14.012C111.631 14.08 112.017 14.182 112.266 14.318C112.538 14.454 112.753 14.6353 112.912 14.862C113.252 15.202 113.479 15.542 113.592 15.882C113.705 16.1993 113.762 16.5167 113.762 16.834C113.671 17.3327 113.331 17.9447 112.742 18.67C112.175 19.3727 111.427 19.9507 110.498 20.404C109.999 20.5627 109.455 20.6307 108.866 20.608C108.277 20.5853 107.789 20.438 107.404 20.166C106.973 19.9847 106.69 20.0187 106.554 20.268C106.418 20.4947 106.293 21.0613 106.18 21.968C106.089 22.8293 106.157 23.464 106.384 23.872C106.611 24.2573 106.917 24.484 107.302 24.552C107.755 24.6427 108.107 24.7107 108.356 24.756C108.628 24.7787 108.957 24.6767 109.342 24.45C109.705 24.2233 109.931 24.0987 110.022 24.076C110.113 24.0307 110.181 23.9853 110.226 23.94C110.294 23.872 110.441 23.7247 110.668 23.498C110.827 23.3393 110.951 23.226 111.042 23.158C111.133 23.0673 111.235 23.022 111.348 23.022C111.461 23.022 111.563 23.0787 111.654 23.192C111.745 23.2827 111.835 23.3507 111.926 23.396C112.153 23.396 112.198 23.532 112.062 23.804C111.949 24.076 111.711 24.4047 111.348 24.79C110.985 25.1527 110.555 25.4927 110.056 25.81ZM110.022 18.602C110.271 18.4887 110.532 18.33 110.804 18.126C111.076 17.8993 111.303 17.6613 111.484 17.412C111.688 17.14 111.79 16.9133 111.79 16.732C111.79 16.4147 111.643 16.154 111.348 15.95C111.053 15.7233 110.611 15.6893 110.022 15.848C109.773 15.916 109.489 16.086 109.172 16.358C108.855 16.6073 108.549 16.8907 108.254 17.208C107.982 17.5253 107.755 17.8087 107.574 18.058C107.415 18.3073 107.359 18.4547 107.404 18.5C107.472 18.6133 107.665 18.704 107.982 18.772C108.299 18.8173 108.651 18.8287 109.036 18.806C109.444 18.7833 109.773 18.7153 110.022 18.602Z" fill="#2196F3"/>
</svg>
